<svg width="24" height="24" viewBox="0 0 24 24" fill="none" xmlns="http://www.w3.org/2000/svg">
<path d="M11.9999 0.246582C9.15054 0.2467 6.39414 1.26071 4.22396 3.10718C2.05378 4.95365 0.61143 7.51208 0.154992 10.3247C-0.301447 13.1373 0.257812 16.0206 1.7327 18.4586C3.20759 20.8966 5.50186 22.7302 8.205 23.6314C8.80499 23.7364 9.02999 23.3764 9.02999 23.0614C9.02999 22.7764 9.01498 21.8314 9.01498 20.8264C5.99999 21.3814 5.22 20.0915 4.98 19.4165C4.71369 18.76 4.29153 18.1782 3.75001 17.7215C3.33001 17.4965 2.73001 16.9415 3.73499 16.9265C4.11874 16.9681 4.48679 17.1017 4.80796 17.3158C5.12913 17.5299 5.39395 17.8182 5.57999 18.1564C5.74412 18.4513 5.96481 18.7108 6.22942 18.9202C6.49403 19.1296 6.79735 19.2848 7.12202 19.3767C7.44669 19.4687 7.78631 19.4957 8.12143 19.4562C8.45655 19.4167 8.78058 19.3114 9.07494 19.1464C9.12689 18.5364 9.39877 17.966 9.83996 17.5415C7.16998 17.2415 4.38 16.2065 4.38 11.6165C4.36314 10.4239 4.80322 9.27005 5.60999 8.39156C5.24313 7.35503 5.28606 6.21752 5.72999 5.21158C5.72999 5.21158 6.73495 4.89657 9.02997 6.44157C10.9935 5.90155 13.0664 5.90155 15.0299 6.44157C17.3249 4.88159 18.3299 5.21158 18.3299 5.21158C18.7739 6.2175 18.8168 7.35504 18.4499 8.39156C19.2591 9.26854 19.6996 10.4234 19.6799 11.6165C19.6799 16.2215 16.8749 17.2415 14.2049 17.5415C14.4913 17.8318 14.7119 18.1802 14.8516 18.5633C14.9914 18.9464 15.0471 19.355 15.0149 19.7615C15.0149 21.3665 14.9999 22.6564 14.9999 23.0615C14.9999 23.3765 15.2249 23.7515 15.8249 23.6315C18.5233 22.7229 20.811 20.885 22.2796 18.4457C23.7482 16.0065 24.3021 13.1247 23.8425 10.3148C23.3829 7.5049 21.9397 4.94979 19.7705 3.10557C17.6012 1.26136 14.8472 0.248064 11.9999 0.246582V0.246582Z" fill="#080708"/>
</svg>
