<svg width="24" height="24" viewBox="0 0 24 24" fill="none" xmlns="http://www.w3.org/2000/svg">
<path fill-rule="evenodd" clip-rule="evenodd" d="M0 12C0 5.37258 5.37258 0 12 0C18.6274 0 24 5.37258 24 12C24 18.6274 18.6274
24 12 24C5.37258 24 0 18.6274 0 12ZM1.6 12C1.6 6.78549 5.43769 2.46731 10.4427 1.71581L11.2 2.09444V2.70559L10.0422 3.28447C9.78718 3.41201 9.61928
3.66568 9.60156 3.9503C9.58384 4.23493 9.71898 4.50747 9.95626 4.66565L12.3563 6.26565C12.4877 6.35326 12.6421 6.40001 12.8 6.40001H13.6C14.0418 6.40001
14.4 6.04184 14.4 5.60001V4.80001H15.2V5.60001C15.2 5.81219 15.2843 6.01567 15.4343 6.1657L16 6.73139V7.66864L15.6686 8.00001H14.5889L11.5578 6.48447C11.3326
6.37186 11.0675 6.37186 10.8422 6.48447L9.41116 7.20001H7.20002C6.83292 7.20001 6.51294 7.44985 6.4239 7.80599L5.6239 11.006C5.55575 11.2786 5.63563 11.567
5.83433 11.7657L8.23433 14.1657C8.29513 14.2265 8.36534 14.2771 8.44225 14.3156L9.60002 14.8944V16.8C9.60002 17.0122 9.6843 17.2157 9.83433 17.3657L10.4
17.9314V19.2C10.4 19.3242 10.4289 19.4467 10.4845 19.5578L11.2845 21.1578C11.42 21.4288 11.697 21.6 12 21.6H13.6C13.8675 21.6 14.1173 21.4663 14.2657
21.2438L15.8657 18.8438C15.8841 18.8162 15.9007 18.7875 15.9156 18.7578L16.7156 17.1578C16.7711 17.0467 16.8 16.9242 16.8 16.8V15.4667L19.04 12.48C19.2218
12.2376 19.2511 11.9133 19.1156 11.6422L18.8944 11.2H20C20.4418 11.2 20.8 10.8418 20.8 10.4V9.60001H22.1217C22.3037 10.3704 22.4 11.174 22.4 12C22.4 17.7438
17.7438 22.4 12 22.4C6.25624 22.4 1.6 17.7438 1.6 12Z" fill="#E58F65"/>
</svg>
